<svg width="140" height="140" viewBox="0 0 140 140" fill="none" xmlns="http://www.w3.org/2000/svg">
<g clip-path="url(#clip0_3430_74299)">
<path d="M127.418 110.042C135.346 98.6954 140 84.8922 140 70C140 31.34 108.66 0 70 0C31.34 0 0 31.34 0 70C0 84.8922 4.65418 98.6954 12.582 110.042H127.418Z" fill="#6EB1FC"/>
<path d="M127.422 16.4062V110.042C114.77 128.152 93.7672 140 70 140C46.2328 140 25.2301 128.152 12.5781 110.042V16.4062L27.6637 14.2516L70 8.20312L112.336 14.2516L127.422 16.4062Z" fill="#E9EFFF"/>
<path d="M34.3629 13.2946L27.6637 14.2516L12.5781 16.4063V110.042C25.2301 128.152 46.2328 140 70 140C93.7672 140 114.77 128.152 127.422 110.042C76.0268 110.042 34.3632 68.3783 34.3632 16.9835V13.2946H34.3629Z" fill="#D3DCFB"/>
<path d="M127.422 16.4062H12.5781V5.46875C12.5781 2.44836 15.0265 0 18.0469 0H121.953C124.974 0 127.422 2.44836 127.422 5.46875V16.4062Z" fill="#2A428C"/>
<path d="M31.3242 13.6719C31.3242 12.1617 32.5484 10.9375 34.0586 10.9375V5.46875C32.5484 5.46875 31.3242 4.24457 31.3242 2.73438C31.3242 1.22418 32.5484 0 34.0586 0H18.0469C15.0265 0 12.5781 2.44836 12.5781 5.46875V16.4062H34.0586C32.5484 16.4062 31.3242 15.1821 31.3242 13.6719Z" fill="#1C2E7A"/>
<path d="M115.801 10.9375C117.311 10.9375 118.535 9.71328 118.535 8.20312C118.535 6.69297 117.311 5.46875 115.801 5.46875C114.291 5.46875 113.066 6.69297 113.066 8.20312C113.066 9.71328 114.291 10.9375 115.801 10.9375Z" fill="#FF4155"/>
<path d="M106.23 10.9375C107.741 10.9375 108.965 9.71328 108.965 8.20312C108.965 6.69297 107.741 5.46875 106.23 5.46875C104.72 5.46875 103.496 6.69297 103.496 8.20312C103.496 9.71328 104.72 10.9375 106.23 10.9375Z" fill="#FFDD40"/>
<path d="M96.6602 10.9375C98.1703 10.9375 99.3945 9.71328 99.3945 8.20312C99.3945 6.69297 98.1703 5.46875 96.6602 5.46875C95.15 5.46875 93.9258 6.69297 93.9258 8.20312C93.9258 9.71328 95.15 10.9375 96.6602 10.9375Z" fill="#38C674"/>
<path d="M24.1992 10.9375H82.9883C84.4985 10.9375 85.7227 9.71332 85.7227 8.20312C85.7227 6.69293 84.4985 5.46875 82.9883 5.46875H24.1992C22.689 5.46875 21.4648 6.69293 21.4648 8.20312C21.4648 9.71332 22.689 10.9375 24.1992 10.9375Z" fill="#3C58A0"/>
<path d="M70 88.1836C87.3668 88.1836 101.445 74.105 101.445 56.7383C101.445 39.3715 87.3668 25.293 70 25.293C52.6332 25.293 38.5547 39.3715 38.5547 56.7383C38.5547 74.105 52.6332 88.1836 70 88.1836Z" fill="white"/>
<path d="M90.3648 74.9831C94.7037 70.1436 97.3438 63.7495 97.3438 56.7383C97.3438 41.6369 85.1014 29.3945 70 29.3945C54.8986 29.3945 42.6562 41.6369 42.6562 56.7383C42.6562 63.7495 45.2963 70.1436 49.6352 74.9831H90.3648Z" fill="#6EB1FC"/>
<path d="M87.1963 68.2738C84.8464 66.1989 74.6669 64.5228 74.6669 64.5228V52.5525H65.3325V64.5228C65.3325 64.5228 55.153 66.1989 52.8031 68.2738C51.8368 69.1272 50.6716 71.9523 49.6348 74.9831C54.6409 80.5675 61.9094 84.082 69.9996 84.082C78.0898 84.082 85.3583 80.5675 90.3644 74.9831C89.3275 71.9523 88.1627 69.1272 87.1963 68.2738Z" fill="#2A428C"/>
<path d="M81.1744 80.3436C70.9098 80.3436 61.9679 74.6867 57.2918 66.3212C55.3567 66.8896 53.6138 67.5579 52.8031 68.2738C51.8368 69.1272 50.6716 71.9523 49.6348 74.9831C54.6411 80.5675 61.9096 84.082 69.9998 84.082C75.1437 84.082 79.9552 82.6607 84.0649 80.1905C83.115 80.2905 82.1509 80.3436 81.1744 80.3436Z" fill="#1C2E7A"/>
<path d="M65.332 52.5525V64.5228C70.345 64.5228 73.1556 60.6755 73.1556 60.6755L74.6664 52.5525H65.332Z" fill="#1C2E7A"/>
<path d="M78.679 47.8966C78.679 54.2871 74.7934 61.7821 70.0006 61.7821C65.2078 61.7821 61.3223 54.2871 61.3223 47.8966C61.3223 41.5061 65.2078 36.911 70.0006 36.911C74.7934 36.911 78.679 41.5059 78.679 47.8966Z" fill="#3C58A0"/>
<path d="M64.3066 47.8966C64.3066 42.1845 67.4109 37.9074 71.4928 37.0636C71.008 36.9632 70.5095 36.911 70.0006 36.911C65.2078 36.911 61.3223 41.5059 61.3223 47.8966C61.3223 54.2871 65.2078 61.7821 70.0006 61.7821C70.5095 61.7821 71.008 61.6968 71.4928 61.5382C67.4109 60.2021 64.3066 53.6087 64.3066 47.8966Z" fill="#2A428C"/>
<path d="M102.812 108.008H37.1875C34.1671 108.008 31.7188 105.559 31.7188 102.539C31.7188 99.5187 34.1671 97.0703 37.1875 97.0703H102.812C105.833 97.0703 108.281 99.5187 108.281 102.539C108.281 105.559 105.833 108.008 102.812 108.008Z" fill="#2A428C"/>
<path d="M57.6953 104.59C58.8279 104.59 59.7461 103.672 59.7461 102.539C59.7461 101.406 58.8279 100.488 57.6953 100.488C56.5627 100.488 55.6445 101.406 55.6445 102.539C55.6445 103.672 56.5627 104.59 57.6953 104.59Z" fill="#3C58A0"/>
<path d="M65.8984 104.59C67.0311 104.59 67.9492 103.672 67.9492 102.539C67.9492 101.406 67.0311 100.488 65.8984 100.488C64.7658 100.488 63.8477 101.406 63.8477 102.539C63.8477 103.672 64.7658 104.59 65.8984 104.59Z" fill="#3C58A0"/>
<path d="M74.1016 104.59C75.2342 104.59 76.1523 103.672 76.1523 102.539C76.1523 101.406 75.2342 100.488 74.1016 100.488C72.9689 100.488 72.0508 101.406 72.0508 102.539C72.0508 103.672 72.9689 104.59 74.1016 104.59Z" fill="#3C58A0"/>
<path d="M82.3047 104.59C83.4373 104.59 84.3555 103.672 84.3555 102.539C84.3555 101.406 83.4373 100.488 82.3047 100.488C81.1721 100.488 80.2539 101.406 80.2539 102.539C80.2539 103.672 81.1721 104.59 82.3047 104.59Z" fill="#3C58A0"/>
<path d="M90.5078 104.59C91.6404 104.59 92.5586 103.672 92.5586 102.539C92.5586 101.406 91.6404 100.488 90.5078 100.488C89.3752 100.488 88.457 101.406 88.457 102.539C88.457 103.672 89.3752 104.59 90.5078 104.59Z" fill="#3C58A0"/>
<path d="M98.7109 104.59C99.8436 104.59 100.762 103.672 100.762 102.539C100.762 101.406 99.8436 100.488 98.7109 100.488C97.5783 100.488 96.6602 101.406 96.6602 102.539C96.6602 103.672 97.5783 104.59 98.7109 104.59Z" fill="#3C58A0"/>
<path d="M49.4922 104.59C50.6248 104.59 51.543 103.672 51.543 102.539C51.543 101.406 50.6248 100.488 49.4922 100.488C48.3596 100.488 47.4414 101.406 47.4414 102.539C47.4414 103.672 48.3596 104.59 49.4922 104.59Z" fill="#3C58A0"/>
<path d="M41.2891 104.59C42.4217 104.59 43.3398 103.672 43.3398 102.539C43.3398 101.406 42.4217 100.488 41.2891 100.488C40.1564 100.488 39.2383 101.406 39.2383 102.539C39.2383 103.672 40.1564 104.59 41.2891 104.59Z" fill="#3C58A0"/>
<path d="M97.3438 123.047H37.1875C34.1671 123.047 31.7188 120.599 31.7188 117.578C31.7188 114.558 34.1671 112.109 37.1875 112.109H97.3438V123.047Z" fill="white"/>
<path d="M97.3438 123.047H102.812C105.833 123.047 108.281 120.599 108.281 117.578C108.281 114.558 105.833 112.109 102.812 112.109H97.3438C94.3234 112.109 91.875 114.558 91.875 117.578C91.875 120.599 94.3234 123.047 97.3438 123.047Z" fill="#BEC8F7"/>
<path d="M59.0801 119.629C60.2127 119.629 61.1309 118.711 61.1309 117.578C61.1309 116.446 60.2127 115.527 59.0801 115.527C57.9475 115.527 57.0293 116.446 57.0293 117.578C57.0293 118.711 57.9475 119.629 59.0801 119.629Z" fill="#BEC8F7"/>
<path d="M67.2832 119.629C68.4158 119.629 69.334 118.711 69.334 117.578C69.334 116.446 68.4158 115.527 67.2832 115.527C66.1506 115.527 65.2324 116.446 65.2324 117.578C65.2324 118.711 66.1506 119.629 67.2832 119.629Z" fill="#BEC8F7"/>
<path d="M75.4863 119.629C76.6189 119.629 77.5371 118.711 77.5371 117.578C77.5371 116.446 76.6189 115.527 75.4863 115.527C74.3537 115.527 73.4355 116.446 73.4355 117.578C73.4355 118.711 74.3537 119.629 75.4863 119.629Z" fill="#BEC8F7"/>
<path d="M83.6895 119.629C84.8221 119.629 85.7402 118.711 85.7402 117.578C85.7402 116.446 84.8221 115.527 83.6895 115.527C82.5568 115.527 81.6387 116.446 81.6387 117.578C81.6387 118.711 82.5568 119.629 83.6895 119.629Z" fill="#BEC8F7"/>
<path d="M50.877 119.629C52.0096 119.629 52.9277 118.711 52.9277 117.578C52.9277 116.446 52.0096 115.527 50.877 115.527C49.7443 115.527 48.8262 116.446 48.8262 117.578C48.8262 118.711 49.7443 119.629 50.877 119.629Z" fill="#BEC8F7"/>
<path d="M42.6738 119.629C43.8064 119.629 44.7246 118.711 44.7246 117.578C44.7246 116.446 43.8064 115.527 42.6738 115.527C41.5412 115.527 40.623 116.446 40.623 117.578C40.623 118.711 41.5412 119.629 42.6738 119.629Z" fill="#BEC8F7"/>
<path d="M98.2422 115.858V119.299C98.2422 119.736 98.7292 119.996 99.0926 119.754L101.671 118.033C101.995 117.817 101.995 117.34 101.671 117.124L99.0926 115.404C98.7292 115.16 98.2422 115.421 98.2422 115.858Z" fill="white"/>
<circle cx="119" cy="118" r="26" fill="white"/>
<path fill-rule="evenodd" clip-rule="evenodd" d="M119 97C107.402 97 98 106.402 98 118C98 129.598 107.402 139 119 139C130.598 139 140 129.598 140 118C140 106.402 130.598 97 119 97ZM128.103 114.449C128.27 114.257 128.398 114.034 128.478 113.793C128.558 113.551 128.589 113.296 128.569 113.042C128.549 112.788 128.478 112.541 128.361 112.315C128.244 112.089 128.083 111.888 127.888 111.725C127.692 111.563 127.466 111.44 127.223 111.366C126.979 111.292 126.723 111.267 126.47 111.293C126.217 111.319 125.971 111.396 125.748 111.518C125.525 111.64 125.328 111.806 125.17 112.005L116.961 121.854L112.713 117.605C112.353 117.257 111.871 117.065 111.371 117.069C110.87 117.073 110.391 117.274 110.037 117.628C109.683 117.982 109.482 118.461 109.478 118.961C109.474 119.462 109.666 119.944 110.014 120.304L115.741 126.032C115.929 126.219 116.153 126.365 116.401 126.461C116.648 126.557 116.912 126.6 117.177 126.588C117.442 126.576 117.702 126.509 117.939 126.391C118.177 126.273 118.387 126.107 118.557 125.904L128.103 114.449Z" fill="url(#paint0_linear_3430_74299)"/>
</g>
<defs>
<linearGradient id="paint0_linear_3430_74299" x1="119.002" y1="139.004" x2="119.002" y2="87.4537" gradientUnits="userSpaceOnUse">
<stop stop-color="#03B8B8"/>
<stop offset="0.723958" stop-color="#90D105"/>
</linearGradient>
<clipPath id="clip0_3430_74299">
<rect width="140" height="140" fill="white"/>
</clipPath>
</defs>
</svg>
